<svg xmlns="http://www.w3.org/2000/svg" viewBox="0 0 68 24" fill="none">
    <path fill="#009C32"
          d="M67 11.078c-.957-2.425-3.343-3.76-5.917-3.288l-5.283.943a1.627 1.627 0 0 0-1.307 1.874 1.627 1.627 0 0 0 1.873 1.307l5.283-.943c1.254-.23 2.035.525 2.345 1.307.31.782.256 1.86-.822 2.547l-7.763 5.027a2.26 2.26 0 0 1-2.345.095 2.252 2.252 0 0 1-1.2-2.022V1.617C51.865.727 51.15 0 50.248 0c-.89 0-1.617.728-1.617 1.617v16.281c0 2.062 1.078 3.868 2.884 4.852a5.48 5.48 0 0 0 2.642.687 5.478 5.478 0 0 0 3.005-.903l7.763-5.027c2.197-1.415 3.033-4.003 2.076-6.429ZM39.708 7.776l-5.283.944a1.627 1.627 0 0 0-1.307 1.873 1.627 1.627 0 0 0 1.873 1.308l5.283-.944c1.253-.229 2.035.526 2.345 1.307.31.782.256 1.86-.822 2.548l-7.763 5.027a2.26 2.26 0 0 1-2.345.094 2.252 2.252 0 0 1-1.2-2.021V5.539c0-2.062-1.078-3.868-2.884-4.852a5.454 5.454 0 0 0-5.647.216L2.456 13.545C.26 14.973-.563 17.56.394 19.987c.957 2.426 3.343 3.76 5.917 3.289l17.035-3.06a1.627 1.627 0 0 0 1.308-1.873 1.627 1.627 0 0 0-1.874-1.308l-17.035 3.06c-1.254.229-2.035-.526-2.345-1.307-.31-.782-.256-1.86.822-2.548L23.724 3.598a2.26 2.26 0 0 1 2.345-.094c.755.404 1.2 1.16 1.2 2.022v12.372c0 2.062 1.078 3.868 2.884 4.852a5.48 5.48 0 0 0 2.641.687 5.402 5.402 0 0 0 2.992-.903l7.763-5.027c2.197-1.428 3.019-4.016 2.062-6.442-.943-2.426-3.329-3.747-5.903-3.289Z"/>
</svg>