<svg xmlns="http://www.w3.org/2000/svg" viewBox="0 0 25 24" fill="none">
    <path fill="#96D700"
          d="M17.757 10.729 23.83.226a.127.127 0 0 0 0-.082.108.108 0 0 0 0-.076.14.14 0 0 0-.057-.063.177.177 0 0 0-.082 0h-3.88a2.44 2.44 0 0 0-1.2.322c-.364.203-.668.5-.879.86l-6.521 11.299a.192.192 0 0 0 0 .063.279.279 0 0 0 0 .07.15.15 0 0 0 .037.056.301.301 0 0 0 .057.038 12.007 12.007 0 0 1 6.8 6.23c.01.025.01.052 0 .077.01.024.01.051 0 .076a.127.127 0 0 1-.057.056.17.17 0 0 1-.076 0H4.961a.164.164 0 0 1-.145-.095.158.158 0 0 1-.013-.063V4.947a.152.152 0 0 1 .158-.158h6.528a2.42 2.42 0 0 0 2.085-1.201l1.94-3.362a.175.175 0 0 0 0-.082.152.152 0 0 0 0-.076l-.063-.063a.152.152 0 0 0-.076 0H.165a.202.202 0 0 0-.12.025A.202.202 0 0 0 0 .15v23.691a.158.158 0 0 0 .05.114.17.17 0 0 0 .114.044H23.85a.152.152 0 0 0 .165-.164 16.668 16.668 0 0 0-1.669-7.14 16.776 16.776 0 0 0-4.55-5.745.152.152 0 0 1-.057-.095.158.158 0 0 1 .02-.126Z"/>
</svg>