<svg xmlns="http://www.w3.org/2000/svg" viewBox="0 0 171 20" fill="none">
    <g clip-path="url(#a)">
        <path fill="#1E2D3C" d="M57.463 1.146V18.88H54.6v-8.019h-8.803v8.02h-2.863V1.145h2.863v6.98H54.6v-6.98h2.863Z"/>
        <mask id="b" width="171" height="20" x="0" y="0" maskUnits="userSpaceOnUse" style="mask-type:luminance">
            <path fill="#fff" d="M170.435.004H0v19.992h170.435V.004Z"/>
        </mask>
        <g mask="url(#b)">
            <path fill="#1E2D3C"
                  d="M81.554 16.451a6.144 6.144 0 0 1-6.238-6.442 6.144 6.144 0 0 1 6.238-6.434c.672.02 1.335.158 1.96.409l1.278-2.42a8.12 8.12 0 0 0-3.213-.708 8.922 8.922 0 0 0-9.144 9.153 8.924 8.924 0 0 0 9.144 9.178 8.36 8.36 0 0 0 3.221-.742l-1.286-2.394a5.837 5.837 0 0 1-1.986.4"/>
        </g>
        <path fill="#F05323"
              d="M120.863 1.146V18.88h-3.391l-8.249-13.277V18.88h-2.864V1.146h3.375L118 14.432V1.146h2.863ZM134.234 16.145v2.735h-10.601V1.146h2.863v14.999h7.738ZM138.828 1.146h-2.863V18.89h2.863V1.146ZM158.854 1.146V18.88h11.581v-2.735h-8.718V10.86h7.15V8.126h-7.15V3.882h8.47V1.146h-11.333Z"/>
        <mask id="c" width="171" height="20" x="0" y="0" maskUnits="userSpaceOnUse" style="mask-type:luminance">
            <path fill="#fff" d="M170.435.004H0v19.992h170.435V.004Z"/>
        </mask>
        <g mask="url(#c)">
            <path fill="#F05323"
                  d="M101.648 10a7.222 7.222 0 0 1-8.63 7.097 7.226 7.226 0 1 1 8.63-7.097ZM94.422.004A9.996 9.996 0 1 0 104.418 10 10.004 10.004 0 0 0 94.422.004Z"/>
        </g>
        <path fill="#1E2D3C" d="M95.656 11.218h-6.783v-.29l4.593-1.9 1.926-4.696h.264v6.886Z"/>
        <mask id="d" width="171" height="20" x="0" y="0" maskUnits="userSpaceOnUse" style="mask-type:luminance">
            <path fill="#fff" d="M170.435.004H0v19.992h170.435V.004Z"/>
        </mask>
        <g fill="#1E2D3C" mask="url(#d)">
            <path d="M9.595 13.41c0-1.705-.852-2.71-3.093-2.71H2.863v5.445H6.35c2.207 0 3.246-1.066 3.246-2.736Zm2.915 0c0 3.408-2.182 5.445-6.059 5.445H0V1.146h11.215v2.736H2.863v4.176H6.63c3.903 0 5.88 1.977 5.88 5.377M38.108 9.557a3.86 3.86 0 0 0 2.386-3.648c0-2.965-2.616-5.053-6.365-5.053a9.009 9.009 0 0 0-2.557.34V4.18a4.423 4.423 0 0 1 2.514-.606c2.31 0 3.528 1.091 3.528 2.685 0 1.593-1.202 2.267-3.46 2.267h-1.662v2.556h2.199c2.608 0 3.468 1.04 3.468 2.557 0 1.704-1.244 2.863-3.8 2.863a6.869 6.869 0 0 1-3.136-.622v2.965c1.04.27 2.112.401 3.187.392 4.03 0 6.664-2.053 6.664-5.351a4.32 4.32 0 0 0-2.966-4.261"/>
        </g>
        <path fill="#1E2D3C"
              d="M62.746 3.882v4.244h7.15v2.735h-7.15v5.284h8.718v2.735H59.883V1.146h11.334v2.736h-8.47Z"/>
        <path fill="#F05323"
              d="M156.092 1.146V18.88h-3.4l-8.241-13.277V18.88h-2.863V1.146h3.366l8.275 13.286V1.146h2.863Z"/>
        <path fill="#1E2D3C"
              d="M14.54 1.146V18.88h3.39l8.25-13.277V18.88h2.863V1.146h-3.366l-8.275 13.286V1.146H14.54Z"/>
    </g>
    <defs>
        <clipPath id="a">
            <path fill="#fff" d="M0 0h170.435v20H0z"/>
        </clipPath>
    </defs>
</svg>