<svg xmlns="http://www.w3.org/2000/svg" viewBox="0 0 16 16" >
    <g clip-path="url(#a)">
        <mask id="b" width="16" height="16" x="0" y="0" maskUnits="userSpaceOnUse" style="mask-type:luminance">
            <path fill="#fff" d="M15.915 0H0v16h15.915V0Z"/>
        </mask>
        <g mask="url(#b)">
            <path
                  d="M7.883 16a7.786 7.786 0 0 1-4.139-1.172l-2.976.778a.618.618 0 0 1-.683-.213L0 15.265v-.598c.653-1.328.76-2.86.299-4.266a8.958 8.958 0 0 1-.246-1.067V6.977c0-.25.043-.494.128-.736.097-.5.243-.99.438-1.462.207-.477.464-.931.768-1.354A7.7 7.7 0 0 1 2.453 2.24a7.242 7.242 0 0 1 1.227-.992c.435-.26.887-.488 1.355-.683A7.53 7.53 0 0 1 6.539.14a7.67 7.67 0 0 1 3.115.043c.512.098 1.013.252 1.493.458.476.208.933.458 1.365.746.437.315.84.672 1.205 1.067.367.372.696.779.982 1.216.29.433.53.899.714 1.387.194.482.34.983.438 1.493 0 .128 0 .256.064.384V9.09a4.68 4.68 0 0 1-.096.533 7.19 7.19 0 0 1-.47 1.494 7.039 7.039 0 0 1-.757 1.397 9.53 9.53 0 0 1-1.003 1.205 7.522 7.522 0 0 1-1.216.96 7.201 7.201 0 0 1-1.397.715c-.483.21-.987.368-1.504.47-.526.078-1.057.124-1.59.138Z"/>
        </g>
    </g>
    <defs>
        <clipPath id="a">
            <path fill="#fff" d="M0 0h15.915v16H0z"/>
        </clipPath>
    </defs>
</svg>